PathFileType	4	(X/Y/Z)	D:\TRACE\spot_10-12-23\spot_arm_body_motion_3_8-platform.trc
DataRate	CameraRate	NumFrames	NumMarkers	Units	OrigDataRate	OrigDataStartFrame	OrigNumFrames
100.00	100.00	      67	5	mm	100.00	2626	      7000
Frame#	Time	Left_Front			Right_Front			Left_Aft			Right_Aft			Post			
		X1	Y1	Z1	X2	Y2	Z2	X3	Y3	Z3	X4	Y4	Z4	X5	Y5	Z5	

2626	26.250	-774.58215	-17.84122	-646.86932	797.77161	-12.77937	-639.96594	-691.96863	21.25548	490.21921	725.60486	29.18245	576.31287	8.49306	708.03394	-991.49756	
2627	26.260	-774.24255	-17.88086	-647.01233	798.16675	-12.80361	-639.99774	-691.57751	21.36873	490.25122	725.89288	29.39136	576.31232	8.80371	707.92517	-991.75323	
2628	26.270	-774.07404	-17.98232	-646.89972	798.94818	-12.71247	-639.85400	-691.09937	21.46739	490.30707	726.30157	29.36293	576.28387	9.02111	707.84161	-992.09027	
2629	26.280	-773.69031	-18.12788	-646.95892	799.08728	-12.83367	-640.08588	-690.82959	21.54457	490.29050	726.69379	29.38415	576.32007	9.27325	707.79449	-992.07483	
2630	26.290	-773.10968	-18.36866	-647.12280	799.48120	-12.89534	-640.10760	-690.45410	21.59282	490.27847	726.99841	29.48879	576.31909	9.57779	707.62280	-992.01935	
2631	26.300	-772.79089	-18.41285	-647.06854	799.87427	-13.04054	-640.07520	-690.08594	21.64509	490.26913	727.41492	29.49109	576.31335	9.86750	707.49933	-991.93689	
2632	26.310	-772.59875	-18.31792	-646.99933	800.20227	-13.01986	-640.04156	-689.68365	21.68604	490.23798	727.86725	29.48166	576.32275	10.27902	707.47858	-991.82831	
2633	26.320	-772.07318	-18.33887	-646.90588	800.73340	-13.06965	-639.91901	-689.31744	21.69021	490.35031	728.17444	29.47765	576.36517	14.32884	705.83698	-993.20538	
2634	26.330	-771.65002	-18.37818	-646.89008	801.03491	-13.11379	-639.96423	-688.87878	21.68005	490.36566	728.50494	29.43718	576.37067	11.20145	707.46906	-991.47986	
2635	26.340	-771.39606	-18.30131	-646.94635	801.23834	-13.09776	-639.98260	-688.57965	21.59873	490.31744	728.88910	29.39263	576.37897	11.53681	707.56488	-991.41418	
2636	26.350	-770.90674	-18.14179	-646.90326	801.31750	-13.03960	-640.14917	-688.15930	21.61301	490.17157	729.13776	29.41484	576.39056	11.93340	707.58929	-991.30707	
2637	26.360	-770.53510	-18.11238	-646.90643	801.91888	-12.98645	-639.98956	-687.80225	21.57362	490.17783	729.43829	29.39404	576.42334	12.37670	707.72369	-991.28070	
2638	26.370	-770.18408	-18.02843	-647.00208	802.36554	-12.85666	-640.06702	-687.33307	21.53789	490.22888	729.82861	29.31548	576.41156	12.66071	707.80072	-991.30719	
2639	26.380	-769.86554	-18.02260	-646.97906	802.76398	-12.75067	-640.00037	-686.90002	21.43116	490.29645	730.27368	29.26099	576.43494	12.87863	707.83063	-991.29694	
2640	26.390	-769.48297	-18.00630	-646.96478	803.17700	-12.68668	-640.15210	-686.51019	21.27584	490.31754	730.70667	29.11419	576.50500	13.20113	707.96545	-991.30414	
2641	26.400	-769.04333	-17.89084	-646.95654	803.72754	-12.60620	-639.99207	-686.16522	21.20601	490.41049	731.19000	29.02299	576.53387	13.72701	708.10315	-991.30267	
2642	26.410	-768.71710	-17.52797	-646.84912	803.85907	-12.29290	-640.02911	-685.91809	21.02073	490.42313	731.58179	28.95358	576.50891	14.26641	708.32983	-991.15161	
2643	26.420	-768.44373	-17.08786	-646.84711	803.92877	-12.21215	-640.01251	-685.58801	20.92143	490.44473	731.93658	28.73627	576.48505	14.94186	708.84442	-990.93567	
2644	26.430	-768.00043	-16.94379	-646.78638	804.37885	-12.13322	-639.86926	-685.21478	20.84029	490.50317	732.14648	28.52552	576.52014	15.19036	709.11584	-990.80524	
2645	26.440	-767.50690	-16.91982	-646.74268	804.63025	-11.96082	-639.93561	-684.71478	20.69251	490.54117	732.25153	28.18737	576.56744	15.37844	709.50140	-990.67157	
2646	26.450	-767.06464	-16.86336	-646.72028	805.07788	-11.65502	-639.87067	-684.34644	20.55913	490.58014	732.43005	27.94371	576.61816	56.41079	694.51611	-1003.53601	
2647	26.460	-766.83807	-16.50338	-646.62799	805.76556	-11.10248	-639.79199	-684.08734	20.38971	490.62738	732.80627	27.51145	576.70490	46.32572	698.89661	-999.66742	
2648	26.470	-766.32422	-16.07537	-646.64532	806.35114	-10.74176	-639.65509	-683.69824	20.14761	490.74051	733.29510	27.12480	576.78351	16.28665	710.84735	-989.26385	
2649	26.480	-766.02307	-15.74686	-646.50293	806.59222	-10.39826	-639.55243	-683.32654	19.84386	490.81238	733.64099	26.83932	576.84955	16.75206	711.29047	-988.74194	
2650	26.490	-765.81555	-15.43811	-646.48053	806.77850	-10.19131	-639.46436	-682.91718	19.60166	490.98163	734.20844	27.28118	577.11292	16.96828	711.90802	-988.15930	
2651	26.500	-765.51080	-15.04130	-646.35486	806.94000	-9.87614	-639.47131	-682.52570	19.36347	491.05695	734.56335	26.86843	577.15009	17.33403	712.45758	-987.69641	
2652	26.510	-765.21448	-14.42049	-646.18292	807.25732	-9.53147	-639.42126	-682.28174	19.11813	491.19699	734.87207	26.39848	577.27759	17.64927	712.99707	-987.03723	
2653	26.520	-765.05548	-13.82676	-646.13062	807.57776	-9.07890	-639.31647	-681.95734	18.85074	491.38321	735.14917	26.18900	577.37775	17.89510	713.81122	-986.29089	
2654	26.530	-764.68286	-13.53683	-646.07605	808.03082	-8.38484	-639.16815	-681.61737	18.58931	491.37955	735.43353	25.93499	577.45941	18.17619	714.48273	-985.61560	
2655	26.540	-764.27875	-12.62018	-645.85736	808.26929	-7.98777	-639.05640	-681.39471	18.27314	491.42410	735.88403	25.58545	577.62000	18.34810	714.84180	-985.06238	
2656	26.550	-763.92346	-12.48934	-645.80969	808.62299	-7.86256	-638.91010	-681.13599	18.15546	491.56732	736.40289	25.32195	577.76324	18.50576	715.68201	-984.63300	
2657	26.560	-763.61017	-12.70124	-645.70966	808.85516	-7.81738	-638.86200	-680.77246	17.92319	491.87466	736.58093	24.99201	577.97925	19.13993	716.53424	-984.07465	
2658	26.570	-763.44141	-11.98525	-645.77704	809.18896	-7.04522	-638.72809	-680.51837	17.42561	492.09491	736.74994	24.50581	578.15265	19.47825	717.03839	-983.32965	
2659	26.580	-762.98724	-11.33759	-645.48041	809.47308	-5.93528	-638.81201	-680.16418	16.70295	492.39664	737.05676	23.98160	578.16113	19.68951	717.76636	-982.84326	
2660	26.590	-762.86530	-10.64695	-645.51837	809.69824	-5.64745	-638.68091	-680.16864	16.48572	492.24646	737.20264	23.35448	578.33801	19.73293	718.83582	-982.36206	
2661	26.600	-762.53094	-9.70646	-645.37451	809.84271	-5.22530	-638.26050	-679.93042	16.05408	492.30676	737.31885	22.96677	578.55133	19.83381	720.01453	-981.84576	
2662	26.610	-762.45984	-9.13185	-645.19843	810.03711	-4.41028	-638.20984	-679.65076	15.59217	492.55008	737.47473	22.65911	578.71930	20.20142	720.99762	-981.28693	
2663	26.620	-762.45081	-8.81606	-645.00958	810.30481	-3.57154	-637.97491	-679.49335	15.22584	492.77255	737.73737	22.01871	578.84717	20.57806	721.69788	-980.49774	
2664	26.630	-762.23242	-8.37363	-644.87146	810.37976	-3.07042	-637.87061	-679.31744	14.77363	492.79596	737.84174	21.33482	578.90588	20.76543	722.83826	-979.68695	
2665	26.640	-761.87921	-7.33018	-644.80304	810.31128	-2.58528	-637.76563	-679.11798	14.27616	492.93716	738.13507	20.83781	579.08344	20.78012	723.91278	-978.80023	
2666	26.650	-761.76093	-6.35715	-644.65820	810.65070	-1.83966	-637.61243	-678.75427	13.86677	493.19751	738.11169	19.62112	579.15332	20.95176	725.03607	-977.88654	
2667	26.660	-761.41724	-5.96778	-644.51648	810.99036	-0.83449	-637.48181	-678.48193	13.51561	493.40247	738.16547	19.34989	579.50623	21.21295	726.13092	-976.88000	
2668	26.670	-761.29242	-5.26869	-644.35730	811.27582	-0.23128	-637.23846	-678.51367	13.18120	493.51376	738.39453	18.93563	579.50488	21.37068	726.99677	-975.66901	
2669	26.680	-761.30634	-4.72591	-644.12109	811.28564	0.08207	-637.30005	-678.53009	12.48868	493.59537	738.69989	18.53819	579.67566	21.44170	727.69403	-974.29333	
2670	26.690	-761.41687	-3.91084	-644.08130	811.36420	0.66707	-637.19537	-678.27020	11.85254	493.80634	738.98389	17.85618	579.88513	21.77588	728.80762	-973.18628	
2671	26.700	-761.10187	-2.92664	-643.82324	811.50653	1.70423	-637.00262	-678.09784	11.41625	493.88086	739.14020	17.42386	580.07001	21.69366	729.71863	-972.10211	
2672	26.710	-760.95453	-2.28932	-643.69806	811.62183	2.50447	-636.79462	-678.03033	11.06302	494.07642	739.22247	17.08424	580.28741	22.23267	731.14301	-970.83759	
2673	26.720	-760.90173	-1.74712	-643.53253	811.74829	3.22964	-636.66168	-677.98303	10.76946	494.23392	739.36420	16.53623	580.51202	22.17826	732.33868	-969.81219	
2674	26.730	-760.89673	-0.97179	-643.39203	811.86078	3.95432	-636.31726	-677.87164	10.20406	494.66083	739.37604	15.76013	580.65851	21.89964	733.32129	-969.03070	
2675	26.740	-760.92755	0.09754	-643.16736	811.76300	4.63650	-636.32666	-677.76935	9.40045	494.64386	739.50110	14.96849	580.87817	22.07948	734.33472	-968.27087	
2676	26.750	-760.87006	0.64495	-642.98431	811.79730	5.34758	-636.28082	-677.56238	8.56354	495.07944	739.56476	14.46433	581.04126	22.27921	735.43860	-967.27161	
2677	26.760	-760.67535	1.62679	-642.73114	811.98199	6.36309	-635.74097	-677.56287	8.22689	495.24951	739.65814	13.85350	581.24957	22.36716	736.98199	-966.47101	
2678	26.770	-760.29456	2.36463	-642.86578	812.05048	7.23618	-635.69128	-677.62323	7.91278	495.30402	739.68384	13.24580	581.62659	22.47664	737.94250	-965.58307	
2679	26.780	-760.65265	3.24210	-642.42261	811.83325	8.00155	-635.46393	-677.63330	7.30964	495.57089	739.75983	12.61621	581.62982	22.06993	739.58600	-964.58521	
2680	26.790	-760.76190	4.12579	-642.18756	811.96881	8.86652	-635.36792	-677.59149	6.52398	495.90210	739.82904	11.70857	581.85455	22.11694	740.83551	-963.44824	
2681	26.800	-760.57141	4.88712	-642.01917	812.24030	9.63716	-635.10419	-677.63306	5.97239	496.06494	739.83777	11.04506	582.07922	22.26909	741.84521	-962.33746	
2682	26.810	-760.53571	5.70735	-641.81671	812.08545	10.60042	-634.97046	-677.56287	5.48227	496.15753	739.86230	10.46289	582.28754	22.04415	743.11902	-961.32123	
2683	26.820	-760.58630	6.62702	-641.61530	812.20233	11.33465	-634.58789	-677.48975	4.92781	496.36621	739.97974	9.90702	582.54236	22.07587	744.46344	-959.98523	
2684	26.830	-760.56622	7.55345	-641.35785	812.22595	12.35296	-634.40948	-677.45258	4.25270	496.66959	740.03705	9.14054	582.67474	22.23835	745.80853	-958.48529	
2685	26.840	-760.59161	8.26559	-641.25287	812.34113	13.17844	-634.10327	-677.69641	3.72674	496.75140	739.91388	8.31796	582.90491	22.09418	746.97253	-957.28027	
2686	26.850	-760.71649	9.36732	-640.94110	812.13947	14.05562	-634.04877	-677.60577	3.17595	496.93942	739.85449	7.62632	583.12238	22.24009	748.12366	-955.91479	
2687	26.860	-760.61737	9.98900	-640.78503	812.07422	14.74092	-633.78149	-677.45386	2.62218	497.12259	739.81903	7.09450	583.41547	22.51765	749.31787	-954.43579	
2688	26.870	-760.61450	10.70332	-640.58093	812.16980	15.61035	-633.49884	-677.51013	2.05923	497.26215	739.85345	6.38028	583.62921	22.49115	750.55255	-953.09296	
2689	26.880	-760.74487	11.72536	-640.31415	812.01855	16.41295	-633.45813	-677.63159	1.38646	497.38040	739.92065	5.75569	583.73352	22.07706	751.81909	-951.99634	
2690	26.890	-760.92737	12.51457	-640.23230	812.01648	17.38312	-633.20740	-677.74274	0.81750	497.72702	739.72662	4.94246	583.81915	22.05031	753.10693	-950.89716	
2691	26.900	-760.96967	13.33651	-639.83838	811.73969	18.12164	-632.93787	-677.83838	0.20223	497.87421	739.60175	4.17577	584.01538	21.77509	754.44135	-949.98193	
2692	26.910	-761.06647	14.34779	-639.77399	811.60571	18.93524	-632.81122	-677.95691	-0.63223	498.40677	739.35016	3.51023	584.25140	21.58430	755.74634	-948.95160	
